<?xml version="1.0" encoding="UTF-8" standalone="no"?>
<!DOCTYPE svg PUBLIC "-//W3C//DTD SVG 1.1//EN"
"http://www.w3.org/Graphics/SVG/1.1/DTD/svg11.dtd">


<!-- Page 1 -->
<svg x="0" y="0" width="174" height="152" viewBox="0 0 174 152" version="1.1" xmlns="http://www.w3.org/2000/svg" xmlns:xlink="http://www.w3.org/1999/xlink"
style="display: block;margin-left: auto;margin-right: auto;">
<defs>

<style type="text/css"><![CDATA[

.g1_1{
fill: #231F20;
}


]]></style>

</defs>
<path d="M0,0
L0,152
L174,152
L174,0 Z " 
fill="#FFFFFF" stroke="none" />
<path fill-rule="evenodd" d="M112.4,95c0,-0.1,-0.1,-0.2,-0.2,-0.3c-0.1,0,-0.3,-0.1,-0.4,0c-0.1,0,-0.3,0.1,-0.3,0.2c-0.1,0.1,-0.1,0.3,-0.1,0.4c0,0.1,0.1,0.2,0.2,0.3c0.2,0.1,0.4,0.1,0.6,0c0.1,-0.1,0.1,-0.1,0.2,-0.1c0,-0.2,0.1,-0.3,0,-0.5m1.4,1.2c-0.2,-0.1,-0.4,-0.1,-0.6,-0.1c-0.1,0.1,-0.3,0.2,-0.5,0.3c-0.3,0.1,-0.5,0.2,-0.6,0.3c-0.4,0.1,-0.7,0,-1.1,-0.2c-0.3,-0.2,-0.5,-0.5,-0.6,-0.9c-0.1,-0.3,0,-0.7,0.2,-1c0.2,-0.3,0.4,-0.5,0.7,-0.6c0.3,-0.1,0.6,0,0.9,0.1c0.2,0.1,0.4,0.3,0.4,0.5c0.1,0.3,0.1,0.5,0,0.8c0.7,-0.5,1.3,-0.6,1.8,-0.3c0.4,0.2,0.5,0.5,0.6,0.9c0.1,0.4,0,0.7,-0.2,1.1c-0.2,0.3,-0.5,0.5,-0.9,0.7c-0.4,0.1,-0.8,0.1,-1.2,-0.1l0.1,-0.2c0.2,0.1,0.4,0.1,0.7,0c0.1,-0.1,0.3,-0.2,0.4,-0.4C114,96.9,114,96.8,114,96.6c0,-0.2,-0.1,-0.3,-0.2,-0.4m-3.2,4.8l0.3,-0.4c0.2,-0.2,0.2,-0.5,0.2,-0.8C111,99.5,110.8,99.2,110.5,99c-0.3,-0.2,-0.5,-0.4,-0.8,-0.4c-0.3,0,-0.6,0.2,-0.8,0.4l-0.4,0.4Zm-2.5,-2.6c0.5,-0.6,1,-0.8,1.6,-0.9c0.5,0,1,0.2,1.5,0.6c0.5,0.4,0.8,0.8,0.9,1.4c0.1,0.6,0,1.2,-0.4,1.7l-1,1.3l-3.6,-2.8Zm-1.8,5.3l0.4,-0.4c0.1,-0.1,0.2,-0.3,0.1,-0.4c0,-0.2,0,-0.3,-0.2,-0.5c-0.1,-0.1,-0.2,-0.2,-0.4,-0.2c-0.1,0,-0.3,0,-0.4,0.2l-0.4,0.4Zm-1.2,-2c0.4,-0.4,0.8,-0.6,1.2,-0.6c0.4,0,0.7,0.1,1,0.4c0.2,0.2,0.3,0.4,0.3,0.7c0.1,0.3,0,0.6,-0.1,0.8l1.1,0.5c0.2,0,0.3,0,0.4,-0.1c0.1,0,0.1,-0.1,0,-0.2c0,0,0,-0.1,-0.1,-0.2l0.2,-0.1c0.2,0.2,0.3,0.4,0.3,0.7c0,0.2,0,0.5,-0.2,0.6c-0.3,0.3,-0.7,0.4,-1.2,0.2l-1.2,-0.5l-0.2,0.2l1.2,1.2l-0.8,0.8l-3.1,-3.3Zm-3.1,5.4c0.2,0.3,0.4,0.5,0.7,0.6c0.3,0.1,0.6,0.1,0.9,-0.1c0.2,-0.2,0.4,-0.4,0.4,-0.8c-0.1,-0.3,-0.2,-0.6,-0.4,-0.9c-0.2,-0.3,-0.5,-0.5,-0.7,-0.6c-0.4,-0.1,-0.7,-0.1,-0.9,0.1c-0.3,0.2,-0.4,0.4,-0.4,0.8c0.1,0.3,0.2,0.6,0.4,0.9m-0.6,-2.6c0.5,-0.4,1.1,-0.5,1.7,-0.3c0.6,0.1,1.1,0.5,1.5,1c0.3,0.5,0.5,1.1,0.5,1.7c-0.1,0.7,-0.4,1.2,-0.9,1.5c-0.5,0.4,-1.1,0.5,-1.7,0.4c-0.6,-0.2,-1.1,-0.5,-1.5,-1.1c-0.4,-0.5,-0.5,-1.1,-0.5,-1.6c0.1,-0.7,0.3,-1.2,0.9,-1.6m-5,3.7c0.1,-0.5,0.4,-0.9,0.9,-1.1c0.3,-0.2,0.7,-0.3,1.1,-0.2c0.4,0.2,0.8,0.5,1,0.9L99.2,108c-0.1,-0.3,-0.3,-0.4,-0.5,-0.4c-0.2,-0.1,-0.4,-0.1,-0.7,0.1c-0.2,0.1,-0.4,0.3,-0.5,0.6c0,0.3,0.1,0.7,0.3,1.1c0.2,0.4,0.5,0.7,0.9,0.8c0.4,0.2,0.7,0.1,1.1,-0.1c0.4,-0.2,0.6,-0.5,0.7,-0.9l0.2,0.1c-0.1,1,-0.4,1.6,-1.1,2c-0.5,0.2,-1,0.3,-1.6,0c-0.6,-0.2,-1,-0.7,-1.3,-1.3c-0.4,-0.7,-0.5,-1.3,-0.3,-1.8m-1.6,0.2l0.4,0.9L93.3,110l0.4,1l1.2,-0.5l0.2,0.5l-1.3,0.5l0.4,0.9l1.9,-0.7l0.3,1l-2.9,1l-1.6,-4.2Zm-5.7,4.2l0.6,-0.2c0.2,0,0.3,-0.1,0.4,-0.3c0,-0.1,0,-0.3,0,-0.4c0,-0.2,-0.1,-0.3,-0.2,-0.4c-0.2,-0.1,-0.3,-0.2,-0.5,-0.1l-0.6,0.1Zm1.4,-2.2c0.3,0.1,0.5,0.4,0.6,0.8c0.1,0.3,0.1,0.5,0,0.8c-0.1,0.2,-0.3,0.4,-0.6,0.6l0.8,0.9c0.1,0.2,0.2,0.3,0.4,0.2c0,0,0.1,0,0.1,-0.1c0,-0.1,0,-0.1,0,-0.3l0.2,0c0.1,0.3,0.1,0.5,-0.1,0.8c-0.1,0.2,-0.3,0.3,-0.5,0.4C91,114.6,90.6,114.4,90.3,114l-0.8,-1l-0.2,0.1l0.4,1.7L88.6,115l-1,-4.4l1.6,-0.4c0.5,-0.1,0.9,-0.1,1.3,0.2m-10.4,3.9L81,111.1l0.6,0l1,3.1l0.9,-3.1l1.1,0l-1.3,4.5l-0.9,0l-0.8,-2.7l-0.8,2.7l-0.9,0l-1.3,-4.5l0.6,0Zm-2.2,-3.4l-0.2,1l-2,-0.3l-0.1,1l1.3,0.2l-0.1,0.5l-1.3,-0.2l-0.1,1l1.9,0.3l-0.1,1l-3.1,-0.5l0.7,-4.4Zm-6.5,-1.3l0.4,3.3l0.9,-3l1,0.3l-1.2,4.4l-1.1,-0.3L71,111l-0.8,2.9l-1.1,-0.3l1.3,-4.3Zm-4.3,-1.7l-0.5,0.9l-1.8,-0.9l-0.4,0.9l1.1,0.6l-0.2,0.5l-1.2,-0.6l-0.5,0.9l1.8,0.9L65,112l-2.8,-1.4l2.1,-4.1Zm-6.4,-3.8l-0.9,3.5l2.9,-2.1l0.9,0.6L59.7,109l-0.8,-0.6l1.3,-4.6Zm-4.4,-0.3l0.8,0.7L57.7,103ZM59,102.7l-1.9,4.4l-0.8,-0.8L56.8,105l-1,-0.9l-1.3,0.7l-0.4,-0.4L58.3,102Zm-5.7,-2.6l0.3,0.4c0.2,0.1,0.3,0.2,0.5,0.2c0.1,0,0.3,-0.1,0.4,-0.2c0.1,-0.1,0.2,-0.2,0.3,-0.4c0,-0.2,-0.1,-0.3,-0.2,-0.5L54.3,99.2ZM55.4,99c0.3,0.4,0.5,0.8,0.5,1.2c-0.1,0.4,-0.2,0.7,-0.5,1c-0.2,0.2,-0.4,0.3,-0.7,0.3c-0.3,0,-0.6,0,-0.8,-0.2l-0.5,1.1c-0.1,0.2,-0.1,0.3,0,0.4c0,0.1,0.1,0.1,0.2,0.1c0,0,0.1,-0.1,0.2,-0.1L54,103c-0.3,0.1,-0.5,0.2,-0.8,0.2c-0.2,0,-0.4,-0.1,-0.6,-0.2c-0.3,-0.4,-0.3,-0.8,-0.1,-1.2l0.6,-1.2l-0.2,-0.2l-1.3,1.1l-0.8,-0.8l3.5,-2.9ZM50.8,96.2l0.3,0.4c0.1,0.2,0.2,0.2,0.3,0.3c0.2,0,0.3,0,0.4,-0.1C51.9,96.7,52,96.6,52,96.5c0.1,-0.2,0,-0.3,-0.1,-0.4L51.7,95.7Zm-0.4,0.3l-0.9,0.6l0.4,0.5c0.1,0.2,0.2,0.3,0.4,0.3c0.1,0,0.2,0,0.3,-0.1c0.1,-0.1,0.2,-0.2,0.2,-0.3c0.1,-0.1,0.1,-0.3,0,-0.4Zm2.4,-0.9c0.3,0.4,0.4,0.8,0.3,1.2c-0.1,0.3,-0.2,0.6,-0.5,0.7c-0.4,0.3,-0.8,0.3,-1.1,0.1c0,0.2,0,0.5,-0.1,0.7c-0.1,0.2,-0.2,0.4,-0.4,0.5C50.7,99,50.4,99.1,50.1,99C49.7,98.9,49.4,98.7,49.2,98.3L48.1,96.7l3.8,-2.5ZM48,63.2l0,11.2l4.7,0c2,0,3.4,-1.6,3.4,-3.6l0,-3.8c0,-2,-1.4,-3.8,-3.3,-3.8Zm0,24.3l4.8,0c2,0,3.6,-1.6,3.6,-3.5l0,-5c0,-1.9,-1.6,-3.5,-3.6,-3.5l-4.8,0ZM60,68.9c0,2.8,-1.2,5.1,-3.6,6c2.7,0.9,4.6,3.5,4.6,6.7c0,3.7,-3,7,-6.9,7l-13.7,0l0,-1.1l2.9,0l0,-24.3l-2.9,0l0,-1l13,0c3.8,0,6.6,3,6.6,6.7M51.6,55L52,54.4c0.1,-0.1,0.1,-0.2,0.1,-0.4C52,53.9,52,53.8,51.9,53.7C51.7,53.6,51.6,53.6,51.5,53.6c-0.2,0.1,-0.3,0.1,-0.4,0.3l-0.3,0.5ZM50.7,53.3C50.6,53.2,50.6,53.1,50.4,53c-0.1,0,-0.2,-0.1,-0.3,0c-0.2,0,-0.3,0.1,-0.4,0.2l-0.2,0.4l0.8,0.5l0.3,-0.3c0.1,-0.2,0.1,-0.3,0.1,-0.5M51.3,53c0.2,-0.1,0.5,-0.2,0.7,-0.2c0.2,0,0.5,0,0.7,0.2c0.2,0.1,0.4,0.4,0.5,0.7c0,0.4,-0.1,0.8,-0.3,1.2l-1,1.5L48.1,53.9L49,52.6c0.2,-0.4,0.5,-0.7,0.9,-0.7c0.3,-0.1,0.6,-0.1,0.9,0.1c0.4,0.3,0.6,0.6,0.5,1m2.4,-3.3c0,-0.2,-0.1,-0.3,-0.2,-0.4C53.3,49.2,53.2,49.1,53.1,49.1c-0.2,0,-0.4,0.1,-0.5,0.2l-0.4,0.5l1,0.8l0.4,-0.4c0.1,-0.2,0.2,-0.3,0.1,-0.5m1.8,0.4c0.2,0.1,0.4,0,0.4,-0.1c0.1,0,0.1,-0.1,0,-0.2c0,0,0,-0.1,-0.1,-0.2L56,49.5c0.2,0.2,0.3,0.4,0.4,0.6c0,0.3,-0.1,0.5,-0.2,0.7c-0.3,0.3,-0.7,0.4,-1.2,0.3L53.8,50.7l-0.2,0.2l1.3,1.2l-0.7,0.8l-3.4,-3l1,-1.2C52.2,48.3,52.6,48.1,53,48c0.4,0,0.7,0.1,1,0.3c0.2,0.2,0.4,0.4,0.4,0.7c0.1,0.2,0.1,0.5,0,0.8Zm0.6,-4.2l0.6,1.4l0.8,-0.6Zm3.2,1.8L58,46.9l-1,1l0.5,1.3l-0.4,0.4L55.2,45.2l0.7,-0.7l4.2,2.4Zm2.2,-1.8L57.6,43.1l0.5,-0.3L61,44.9L60.1,41.4L61,40.7l1.3,4.7Zm0.7,-5.8l2.7,-1.5l0.5,0.9l-1.8,0.9l0.5,0.9l1.2,-0.6l0.2,0.5l-1.2,0.6l0.5,0.9l1.8,-0.9L67,42.7l-2.7,1.4Zm31.2,44l0,-26.8l-4.4,0l0,-1.2l10.2,0l0,1.2l-4.3,0l0,38.8l-0.2,0L69.9,59.2l0,35.1l4.4,0l0,1.3l-10.1,0l0,-1.3l4.3,0l0,-37l-4.4,0l0,-1.2l10.4,0ZM70.3,38.1l0.9,3l-1.1,0.3L68.8,37l1.1,-0.3L72,39.3L71.1,36.4L72.2,36l1.3,4.4l-1.1,0.3Zm3.5,-2.4l3.1,-0.5l0.1,1l-1.9,0.3l0.1,1l1.3,-0.2l0.1,0.5L75.3,38l0.2,1l1.9,-0.3l0.2,1l-3,0.5Zm8.4,3.8L81.5,36.8l-0.8,2.7l-0.9,0L78.5,34.9l0.6,0L80,38.1L80.9,35l0.7,0l0.8,3.1l1,-3.1l1.1,0l-1.4,4.5Zm7.9,-2.3C90,37,89.9,36.9,89.7,36.9L89.2,36.7L88.9,38l0.5,0.1c0.2,0.1,0.4,0,0.5,-0.1c0.1,-0.1,0.2,-0.2,0.3,-0.4c0,-0.1,0,-0.3,-0.1,-0.4m0.8,1.1c-0.2,0.2,-0.5,0.3,-0.8,0.4l0.3,1.1c0,0.2,0.1,0.3,0.2,0.4c0.1,0,0.2,-0.1,0.2,-0.1C90.9,40,90.9,40,90.9,39.9l0.3,0c-0.1,0.3,-0.2,0.5,-0.4,0.7c-0.3,0.1,-0.5,0.2,-0.7,0.1C89.7,40.6,89.4,40.3,89.3,39.8L89.1,38.6L88.8,38.5l-0.4,1.7L87.3,40l1,-4.5l1.6,0.4c0.5,0.1,0.9,0.4,1.2,0.7c0.2,0.3,0.2,0.7,0.2,1c-0.1,0.3,-0.2,0.5,-0.4,0.7M94,38.1L93.6,39l1.3,0.5L94.7,40L93.4,39.5l-0.3,1L95,41.2l-0.4,0.9L91.7,41l1.6,-4.2l2.9,1l-0.4,1Zm5.7,3.1c0,-0.2,0,-0.4,0,-0.6C99.6,40.4,99.4,40.2,99.2,40.1c-0.3,-0.2,-0.5,-0.2,-0.8,0c-0.3,0.1,-0.5,0.4,-0.7,0.8c-0.3,0.4,-0.3,0.8,-0.2,1.2c0.1,0.4,0.4,0.7,0.7,0.9c0.4,0.1,0.8,0.2,1.2,0l0.1,0.2c-0.9,0.5,-1.6,0.6,-2.3,0.3c-0.5,-0.3,-0.9,-0.7,-1,-1.3c-0.1,-0.6,0,-1.2,0.3,-1.9c0.4,-0.6,0.8,-1.1,1.3,-1.3c0.5,-0.1,1,-0.1,1.5,0.1c0.3,0.2,0.6,0.5,0.7,0.9c0.2,0.4,0.1,0.9,-0.1,1.3Zm3.7,1.7c-0.2,-0.2,-0.5,-0.2,-0.8,-0.1c-0.3,0.1,-0.5,0.3,-0.7,0.6c-0.3,0.3,-0.4,0.6,-0.4,0.9c0,0.4,0.1,0.6,0.4,0.8c0.2,0.2,0.5,0.2,0.8,0.1c0.3,-0.1,0.6,-0.3,0.8,-0.6c0.2,-0.3,0.3,-0.6,0.3,-0.9c0,-0.4,-0.1,-0.6,-0.4,-0.8M103,46.3c-0.6,0.1,-1.2,0,-1.7,-0.3c-0.6,-0.4,-0.9,-0.9,-0.9,-1.6c0,-0.6,0.1,-1.1,0.5,-1.7c0.4,-0.5,0.9,-0.8,1.4,-1c0.6,-0.2,1.2,0,1.8,0.3c0.5,0.4,0.8,0.9,0.8,1.6c0.1,0.6,-0.1,1.1,-0.5,1.7c-0.3,0.5,-0.8,0.8,-1.4,1m4.5,0l-0.4,-0.4l-0.9,0.9l0.4,0.4c0.1,0.2,0.3,0.2,0.4,0.2c0.2,0,0.3,-0.1,0.4,-0.2c0.2,-0.1,0.2,-0.3,0.2,-0.4c0.1,-0.2,0,-0.4,-0.1,-0.5m0.2,1.8c-0.2,0.1,-0.5,0.1,-0.8,0l-0.4,1.1c0,0.2,0,0.3,0.1,0.4c0,0,0.1,0.1,0.2,0c0,0,0.1,0,0.2,-0.1l0.1,0.2c-0.2,0.2,-0.4,0.3,-0.6,0.3c-0.3,0,-0.5,0,-0.7,-0.2c-0.3,-0.3,-0.4,-0.7,-0.2,-1.2L106,47.4l-0.2,-0.2l-1.2,1.3l-0.8,-0.8L107,44.4l1.1,1.2c0.4,0.3,0.6,0.7,0.7,1.2c0,0.3,-0.1,0.7,-0.4,1c-0.2,0.2,-0.4,0.3,-0.7,0.3m3.1,1.8l-0.3,-0.4l-2,1.6l0.3,0.4c0.2,0.3,0.5,0.4,0.8,0.4c0.4,0,0.7,-0.1,0.9,-0.4c0.3,-0.2,0.5,-0.4,0.5,-0.7c0.1,-0.3,0.1,-0.6,-0.2,-0.9m0.4,2.5c-0.4,0.4,-1,0.6,-1.5,0.6c-0.7,0,-1.2,-0.3,-1.6,-0.8l-1,-1.3l3.5,-2.8l1.1,1.3c0.4,0.5,0.5,1.1,0.4,1.6c-0.1,0.6,-0.4,1,-0.9,1.4m2.8,1.7c0,-0.2,-0.1,-0.2,-0.3,-0.3c-0.1,0,-0.2,0,-0.4,0.1c-0.1,0.1,-0.2,0.3,-0.2,0.5c0,0.1,0,0.2,0,0.2c0.1,0.2,0.2,0.2,0.4,0.3c0.1,0,0.2,0,0.4,-0.1c0.1,-0.1,0.2,-0.2,0.2,-0.3c0,-0.2,0,-0.3,-0.1,-0.4m0.4,1c-0.2,0.1,-0.4,0.2,-0.6,0.1c-0.3,0,-0.5,-0.1,-0.7,-0.3c0.2,0.8,0,1.4,-0.6,1.7c-0.3,0.2,-0.7,0.2,-1,0.1c-0.4,-0.1,-0.7,-0.3,-0.9,-0.7c-0.2,-0.3,-0.3,-0.7,-0.2,-1c0,-0.4,0.2,-0.8,0.6,-1.1l0.2,0.1c-0.2,0.2,-0.3,0.4,-0.4,0.7c0,0.2,0.1,0.3,0.2,0.5c0.1,0.2,0.2,0.3,0.4,0.4c0.1,0,0.3,0,0.4,-0.1c0.2,-0.1,0.3,-0.2,0.3,-0.4c0.1,-0.1,0.1,-0.3,0.1,-0.6c-0.1,-0.3,0,-0.5,0,-0.7c0.1,-0.4,0.3,-0.7,0.6,-0.9c0.4,-0.2,0.7,-0.2,1.1,-0.1c0.3,0.1,0.6,0.3,0.8,0.6c0.2,0.4,0.2,0.7,0.2,1c-0.1,0.3,-0.2,0.5,-0.5,0.7m3.2,16l0,-4.1c0,-1.8,-1.2,-3.7,-3.2,-3.7l-4.6,0l0,11.5l4.4,0c2.1,0,3.4,-1.9,3.4,-3.7m-1,11.6l0,-3.3c0,-2.1,-1.7,-3.6,-3.6,-3.6l-3.2,0l0,11.8l3,0l0,1l-10.5,0l0,-1l2.9,0l0,-24.3l-2.9,0l0,-1.1l12.7,0c4.2,0,7.1,3.1,7.1,6.7c0,2.8,-1.8,5.6,-4.7,6.4c2.6,0.9,3.9,3.1,3.9,6.4l0,3.5c0,1.5,1.2,2.7,2.9,2.7l0.5,0l0,0.7c0,0,-0.8,0.3,-1.4,0.3c-3.2,0,-6.7,-2.7,-6.7,-6.2M132.8,69.6c-0.1,2,-0.2,3.9,-0.2,5.7c0,1.9,0.1,3.8,0.2,5.7c0.2,7.4,0.5,15.1,-3.2,21.5c-2.8,4.9,-7.6,8.2,-12,10.7c-1.6,0.9,-3.3,1.8,-5,2.7c-1.7,0.9,-3.4,1.9,-5.1,2.8c-1.6,0.9,-3.3,2,-4.9,3c-1.6,1,-3.2,2,-4.9,3c-4.3,2.5,-9.5,5,-15.2,5c-7.4,0,-13.9,-4.1,-20.2,-8c-1.6,-1,-3.3,-2.1,-4.9,-3c-1.6,-0.9,-3.2,-1.8,-5,-2.7c-6.5,-3.4,-13.2,-6.9,-17,-13.5C31.5,95.9,31.9,88.3,32.2,81c0.1,-2,0.2,-3.9,0.2,-5.7c0,-1.9,-0.1,-3.8,-0.2,-5.7C31.9,62.2,31.7,54.5,35.4,48.1c2.8,-5,7.6,-8.2,11.9,-10.7c1.7,-0.9,3.4,-1.9,5.1,-2.8c1.7,-0.8,3.4,-1.8,5,-2.7c1.7,-1,3.3,-2,4.9,-3c1.6,-1,3.3,-2,5,-3c4.3,-2.5,9.5,-5,15.2,-5c7.4,0,13.9,4.1,20.2,8c1.6,1,3.2,2,4.9,3c1.5,0.9,3.2,1.8,4.9,2.7c6.6,3.4,13.3,6.9,17.1,13.5c3.8,6.6,3.5,14.2,3.2,21.5Z" class="g1_1" />

</svg>
