<?xml version="1.0" encoding="UTF-8" standalone="no"?>
<!DOCTYPE svg PUBLIC "-//W3C//DTD SVG 1.1//EN"
"http://www.w3.org/Graphics/SVG/1.1/DTD/svg11.dtd">


<!-- Page 1 -->
<svg x="0" y="0" width="161" height="148" viewBox="0 0 161 148" version="1.1" xmlns="http://www.w3.org/2000/svg" xmlns:xlink="http://www.w3.org/1999/xlink"
style="display: block;margin-left: auto;margin-right: auto;">
<defs>

<style type="text/css"><![CDATA[

.g1_1{
fill: #231F20;
}


]]></style>

</defs>
<path d="M0,0
L0,148
L161,148
L161,0 Z " 
fill="#FFFFFF" stroke="none" />
<path fill-rule="evenodd" d="M111.8,91.2c0,-0.1,-0.1,-0.2,-0.2,-0.3c-0.1,-0.1,-0.3,-0.1,-0.4,-0.1c-0.1,0.1,-0.3,0.1,-0.3,0.3c-0.1,0.1,-0.1,0.2,-0.1,0.4c0,0.1,0.1,0.2,0.2,0.3c0.2,0.1,0.4,0.1,0.6,0c0.1,-0.1,0.1,-0.1,0.2,-0.2c0,-0.1,0.1,-0.2,0,-0.4m1.4,1.2c-0.2,-0.1,-0.4,-0.1,-0.6,-0.1c-0.1,0,-0.2,0.1,-0.5,0.3c-0.3,0.1,-0.5,0.2,-0.6,0.2c-0.4,0.1,-0.7,0.1,-1.1,-0.1c-0.3,-0.2,-0.5,-0.5,-0.6,-0.9c-0.1,-0.3,0,-0.7,0.2,-1c0.2,-0.3,0.4,-0.5,0.7,-0.6c0.3,-0.1,0.6,-0.1,0.9,0.1c0.2,0.1,0.4,0.3,0.4,0.5c0.1,0.2,0.1,0.5,0,0.7c0.7,-0.5,1.3,-0.5,1.8,-0.2c0.4,0.2,0.5,0.5,0.6,0.9c0.1,0.3,0,0.7,-0.2,1c-0.2,0.4,-0.5,0.6,-0.9,0.7c-0.4,0.2,-0.8,0.2,-1.2,0l0.1,-0.2c0.2,0,0.4,0,0.7,0c0.1,-0.1,0.3,-0.2,0.4,-0.4c0.1,-0.2,0.1,-0.3,0.1,-0.5c0,-0.2,-0.1,-0.3,-0.2,-0.4M110,97.2l0.3,-0.4c0.2,-0.2,0.2,-0.5,0.2,-0.9c-0.1,-0.3,-0.3,-0.5,-0.6,-0.8c-0.3,-0.2,-0.5,-0.3,-0.8,-0.3c-0.3,0,-0.6,0.1,-0.8,0.4l-0.4,0.4Zm-2.5,-2.7c0.5,-0.5,1,-0.8,1.6,-0.8c0.5,0,1,0.2,1.5,0.6c0.5,0.3,0.8,0.8,0.9,1.4c0.1,0.6,0,1.2,-0.4,1.7l-1,1.3l-3.6,-2.9Zm-1.8,5.4l0.4,-0.4c0.1,-0.1,0.2,-0.3,0.1,-0.5c0,-0.1,0,-0.3,-0.2,-0.4c-0.1,-0.1,-0.2,-0.2,-0.4,-0.2c-0.1,0,-0.3,0,-0.4,0.2l-0.4,0.3Zm-1.2,-2.1c0.4,-0.3,0.8,-0.5,1.2,-0.5c0.4,0,0.7,0.1,1,0.4c0.2,0.2,0.3,0.4,0.3,0.7c0.1,0.3,0,0.5,-0.1,0.8l1.1,0.4c0.2,0.1,0.3,0.1,0.4,0c0.1,0,0.1,-0.1,0,-0.2c0,0,0,-0.1,-0.1,-0.2L108.5,99c0.2,0.2,0.3,0.5,0.3,0.8c0,0.2,0,0.4,-0.2,0.6c-0.3,0.3,-0.7,0.3,-1.2,0.1l-1.2,-0.4l-0.2,0.2l1.2,1.2l-0.8,0.8L103.3,99Zm-3.1,5.4c0.2,0.3,0.4,0.5,0.7,0.7c0.3,0.1,0.6,0.1,0.9,-0.1c0.2,-0.2,0.4,-0.5,0.4,-0.8c-0.1,-0.3,-0.2,-0.6,-0.4,-0.9c-0.2,-0.3,-0.5,-0.5,-0.7,-0.6c-0.4,-0.2,-0.7,-0.1,-0.9,0.1c-0.3,0.1,-0.4,0.4,-0.4,0.7c0.1,0.3,0.2,0.6,0.4,0.9m-0.6,-2.5c0.5,-0.4,1.1,-0.5,1.7,-0.3c0.6,0.1,1.1,0.5,1.5,1c0.3,0.5,0.5,1.1,0.5,1.7c-0.1,0.6,-0.4,1.1,-0.9,1.5c-0.5,0.4,-1.1,0.5,-1.7,0.3c-0.6,-0.1,-1.1,-0.4,-1.5,-1c-0.3,-0.5,-0.5,-1.1,-0.5,-1.7c0.1,-0.6,0.4,-1.1,0.9,-1.5m-5,3.6c0.1,-0.5,0.4,-0.8,0.9,-1.1C97,103,97.4,103,97.8,103.1c0.4,0.2,0.8,0.4,1,0.9l-0.2,0.1c-0.1,-0.2,-0.3,-0.3,-0.5,-0.4c-0.2,0,-0.4,0,-0.7,0.1c-0.2,0.2,-0.4,0.4,-0.5,0.7c0,0.3,0.1,0.7,0.3,1.1c0.2,0.4,0.5,0.7,0.9,0.8c0.4,0.1,0.7,0.1,1.1,-0.1c0.4,-0.2,0.6,-0.5,0.7,-0.9l0.2,0c-0.1,1,-0.4,1.7,-1.1,2.1c-0.5,0.2,-1,0.2,-1.6,0c-0.6,-0.3,-1,-0.7,-1.3,-1.3c-0.4,-0.7,-0.5,-1.3,-0.3,-1.9m-1.6,0.3l0.4,0.9l-1.9,0.7l0.4,1l1.2,-0.5l0.2,0.5l-1.3,0.4l0.4,1l1.9,-0.7l0.3,0.9l-2.9,1.1l-1.6,-4.3Zm-5.7,4.1l0.6,-0.1c0.2,0,0.3,-0.1,0.4,-0.3c0,-0.1,0,-0.3,0,-0.5c0,-0.1,-0.1,-0.3,-0.2,-0.4c-0.2,-0.1,-0.3,-0.1,-0.5,-0.1l-0.6,0.2Zm1.4,-2.2c0.3,0.2,0.5,0.5,0.6,0.9c0.1,0.2,0.1,0.5,0,0.7c-0.1,0.3,-0.3,0.5,-0.6,0.7l0.8,0.9c0.1,0.2,0.2,0.2,0.4,0.2c0,0,0.1,-0.1,0.1,-0.2c0,0,0,-0.1,0,-0.2l0.2,0c0.1,0.2,0.1,0.5,-0.1,0.7c-0.1,0.3,-0.3,0.4,-0.5,0.5c-0.4,0.1,-0.8,-0.1,-1.1,-0.5l-0.8,-1l-0.2,0l0.4,1.7L88,111.2l-1,-4.4l1.6,-0.4c0.5,-0.1,0.9,-0.1,1.3,0.1m-10.4,3.9l0.9,-3.1l0.6,0l1,3.1l0.9,-3.2l1.1,0l-1.3,4.6l-0.9,0L81,109.1l-0.8,2.7l-0.9,0L78,107.3l0.6,0Zm-2.2,-3.3l-0.2,1l-2,-0.3l-0.1,1l1.3,0.2l-0.1,0.5l-1.3,-0.2l-0.1,1l1.9,0.3l-0.1,1l-3.1,-0.5l0.7,-4.5Zm-6.5,-1.4l0.4,3.4l0.9,-3l1,0.3l-1.2,4.4l-1.1,-0.3l-0.4,-3.4l-0.8,3l-1.1,-0.3l1.3,-4.4Zm-4.3,-1.6L66,105l-1.8,-0.9L63.8,105l1.1,0.6l-0.2,0.5l-1.2,-0.7L63,106.3l1.8,1l-0.4,0.8l-2.8,-1.4l2.1,-4Zm-6.4,-3.8l-0.9,3.5l2.9,-2.1l0.9,0.6l-3.9,2.9l-0.8,-0.6L59.6,100ZM55.7,100l0.8,0.6l0.6,-1.4Zm2.7,-1.1l-1.9,4.4l-0.8,-0.8l0.5,-1.3l-1,-1L53.9,101l-0.4,-0.5l4.2,-2.3ZM52.7,96.2L53,96.7c0.2,0.1,0.3,0.2,0.5,0.2c0.1,0,0.3,-0.1,0.4,-0.2c0.1,-0.1,0.2,-0.2,0.3,-0.4C54.2,96.1,54.1,96,54,95.8L53.7,95.4Zm2.1,-1c0.3,0.4,0.5,0.8,0.5,1.2c-0.1,0.4,-0.2,0.7,-0.5,1c-0.2,0.1,-0.4,0.2,-0.7,0.3c-0.3,0,-0.6,0,-0.8,-0.2l-0.5,1.1c-0.1,0.2,-0.1,0.3,0,0.4c0,0.1,0.1,0.1,0.2,0c0,0,0.1,0,0.2,-0.1l0.2,0.2c-0.3,0.2,-0.5,0.3,-0.8,0.3c-0.2,0,-0.4,-0.1,-0.6,-0.3C51.7,98.8,51.7,98.4,51.9,97.9l0.6,-1.1L52.3,96.6L51,97.7L50.2,96.9l3.5,-3ZM50.2,92.4l0.3,0.4c0.1,0.1,0.2,0.2,0.3,0.2c0.2,0.1,0.3,0,0.4,0c0.1,-0.1,0.2,-0.2,0.2,-0.4c0.1,-0.1,0,-0.2,-0.1,-0.4L51.1,91.9Zm-0.4,0.3L49,93.3l0.3,0.5c0.1,0.2,0.2,0.2,0.4,0.3c0.1,0,0.2,0,0.3,-0.1c0.1,-0.1,0.2,-0.2,0.2,-0.3c0.1,-0.2,0.1,-0.3,0,-0.4Zm2.4,-0.9c0.3,0.4,0.4,0.8,0.3,1.1c-0.1,0.4,-0.2,0.6,-0.5,0.8C51.6,94,51.2,94,50.9,93.8c0,0.2,0,0.5,-0.1,0.7c-0.1,0.2,-0.2,0.4,-0.4,0.5c-0.3,0.2,-0.6,0.2,-0.9,0.2C49.1,95.1,48.8,94.9,48.6,94.5L47.5,92.9l3.8,-2.5ZM47.4,59.4l0,11.1l4.7,0c2,0,3.4,-1.5,3.4,-3.5l0,-3.9c0,-1.9,-1.4,-3.7,-3.3,-3.7Zm0,24.3l4.8,0c2,0,3.6,-1.6,3.6,-3.5l0,-5c0,-2,-1.6,-3.6,-3.6,-3.6l-4.8,0Zm12,-18.6c0,2.8,-1.2,5.1,-3.6,6c2.7,0.9,4.7,3.5,4.7,6.6c0,3.8,-3.1,7.1,-7,7.1l-13.7,0l0,-1.1l2.9,0l0,-24.3l-2.9,0l0,-1l13,0c3.8,0,6.6,2.9,6.6,6.7M51,51.2l0.4,-0.6c0.1,-0.1,0.1,-0.3,0.1,-0.4C51.4,50.1,51.4,50,51.3,49.9C51.1,49.8,51,49.8,50.9,49.8c-0.2,0,-0.3,0.1,-0.4,0.3l-0.3,0.5ZM50.1,49.5C50,49.4,50,49.3,49.8,49.2C49.7,49.1,49.6,49.1,49.5,49.1c-0.2,0.1,-0.3,0.1,-0.4,0.3l-0.2,0.4l0.8,0.5L50,49.9c0.1,-0.1,0.1,-0.2,0.1,-0.4m0.6,-0.3C50.9,49.1,51.2,49,51.4,49c0.2,0,0.5,0,0.7,0.1c0.2,0.2,0.4,0.5,0.5,0.8c0,0.4,-0.1,0.7,-0.3,1.1l-1,1.6L47.5,50.1l0.9,-1.3c0.2,-0.4,0.5,-0.7,0.9,-0.8c0.3,0,0.6,0,0.9,0.2c0.4,0.2,0.6,0.6,0.5,1m2.4,-3.3c0,-0.2,-0.1,-0.3,-0.2,-0.4C52.7,45.4,52.6,45.3,52.5,45.3c-0.2,0,-0.4,0.1,-0.5,0.2l-0.4,0.4l1,0.9L53,46.4c0.1,-0.2,0.2,-0.4,0.1,-0.5m1.8,0.4c0.2,0,0.4,0,0.4,-0.1c0.1,0,0.1,-0.1,0.1,-0.2c-0.1,0,-0.1,-0.1,-0.2,-0.2l0.2,-0.2c0.2,0.2,0.3,0.5,0.4,0.7c0,0.3,-0.1,0.5,-0.2,0.7c-0.3,0.3,-0.7,0.4,-1.2,0.2L53.2,46.9L53,47.1l1.3,1.1l-0.7,0.9l-3.4,-3l1,-1.2c0.4,-0.4,0.8,-0.7,1.2,-0.7c0.4,0,0.7,0.1,1,0.3c0.2,0.2,0.4,0.4,0.4,0.6c0.1,0.3,0.1,0.6,0,0.9Zm0.6,-4.2l0.6,1.4l0.8,-0.7Zm3.2,1.7L57.4,43.1l-1,0.9l0.5,1.4l-0.4,0.4L54.6,41.4l0.7,-0.7l4.2,2.4Zm2.2,-1.7L57,39.3l0.5,-0.4L60.4,41L59.5,37.6l0.9,-0.7l1.3,4.7Zm0.7,-5.9l2.7,-1.4l0.5,0.9L63,36.6l0.5,0.9l1.2,-0.6l0.2,0.5L63.7,38l0.5,0.9L66,38l0.4,0.8l-2.7,1.5ZM92.8,80.3l0,-26.9l-4.4,0l0,-1.2l10.2,0l0,1.2l-4.3,0l0,38.9l-0.2,0L69.3,55.4l0,35.1l4.4,0l0,1.2l-10.1,0l0,-1.2l4.3,0l0,-37.1l-4.4,0l0,-1.2l10.4,0ZM69.7,34.3l0.9,3l-1.1,0.3L68.2,33.2l1.1,-0.3l2.1,2.6l-0.9,-3l1.1,-0.3l1.3,4.4l-1.1,0.3Zm3.5,-2.4l3.1,-0.5l0.1,0.9l-1.9,0.4l0.1,1l1.3,-0.2L76,34l-1.3,0.2l0.2,1l1.9,-0.3l0.2,1l-3,0.5Zm8.4,3.8L80.9,33l-0.8,2.7l-0.9,0L77.9,31.1l0.6,0l0.9,3.2l0.9,-3.2l0.7,0l0.8,3.2l1,-3.2l1.1,0l-1.4,4.6Zm7.9,-2.4C89.4,33.2,89.3,33.1,89.1,33L88.6,32.9l-0.3,1.3l0.5,0.1c0.2,0,0.4,0,0.5,-0.1c0.1,-0.1,0.2,-0.2,0.3,-0.4c0,-0.2,0,-0.3,-0.1,-0.5m0.8,1.2c-0.2,0.2,-0.5,0.3,-0.8,0.3L89.8,36c0,0.2,0.1,0.3,0.2,0.3c0.1,0,0.2,0,0.2,-0.1c0.1,0,0.1,-0.1,0.1,-0.2l0.3,0.1c-0.1,0.3,-0.2,0.5,-0.4,0.6c-0.3,0.2,-0.5,0.3,-0.7,0.2C89.1,36.8,88.8,36.5,88.7,36L88.5,34.8L88.2,34.7l-0.4,1.7L86.7,36.1l1,-4.4l1.6,0.4c0.6,0.1,0.9,0.3,1.2,0.7c0.2,0.3,0.2,0.6,0.2,1c-0.1,0.3,-0.2,0.5,-0.4,0.7m3.1,-0.3l-0.4,1l1.3,0.5l-0.2,0.5L92.8,35.7l-0.3,1l1.9,0.6l-0.4,1L91.1,37.2l1.6,-4.3L95.6,34l-0.4,0.9Zm5.7,3.2c0,-0.2,0,-0.5,0,-0.7C99,36.5,98.8,36.4,98.6,36.3c-0.3,-0.2,-0.5,-0.2,-0.8,0c-0.3,0.1,-0.5,0.4,-0.7,0.7c-0.3,0.5,-0.3,0.9,-0.2,1.3c0.1,0.4,0.4,0.7,0.7,0.8c0.4,0.2,0.8,0.2,1.2,0l0.1,0.3C98,39.9,97.3,40,96.6,39.6c-0.5,-0.2,-0.9,-0.7,-1,-1.3c-0.1,-0.6,0,-1.2,0.3,-1.8c0.4,-0.7,0.8,-1.1,1.3,-1.3c0.5,-0.2,1,-0.1,1.5,0.1c0.3,0.2,0.6,0.5,0.7,0.9c0.2,0.4,0.1,0.8,-0.1,1.3Zm3.7,1.7C102.6,38.9,102.3,38.9,102,39c-0.3,0.1,-0.5,0.3,-0.7,0.6c-0.3,0.3,-0.4,0.6,-0.4,0.9c0,0.3,0.1,0.6,0.4,0.8c0.2,0.2,0.5,0.2,0.8,0.1c0.3,-0.1,0.6,-0.3,0.8,-0.7c0.2,-0.2,0.3,-0.5,0.3,-0.9c0,-0.3,-0.1,-0.6,-0.4,-0.7m-0.4,3.4c-0.6,0.1,-1.2,0,-1.7,-0.4c-0.6,-0.3,-0.9,-0.8,-0.9,-1.5c0,-0.6,0.1,-1.1,0.5,-1.7c0.4,-0.5,0.9,-0.9,1.4,-1c0.6,-0.2,1.2,-0.1,1.8,0.3c0.5,0.4,0.8,0.9,0.8,1.5c0.1,0.6,-0.1,1.2,-0.5,1.7c-0.3,0.6,-0.8,0.9,-1.4,1.1m4.5,0l-0.4,-0.4L105.6,43l0.4,0.4c0.1,0.1,0.3,0.2,0.4,0.2c0.2,-0.1,0.3,-0.1,0.5,-0.3c0.1,-0.1,0.1,-0.2,0.2,-0.4c0,-0.1,-0.1,-0.3,-0.2,-0.4m0.2,1.8c-0.2,0.1,-0.5,0,-0.8,-0.1l-0.4,1.2c0,0.1,0,0.3,0.1,0.4c0,0,0.1,0,0.2,0c0,0,0.1,-0.1,0.2,-0.1l0.1,0.1c-0.2,0.2,-0.4,0.4,-0.6,0.4c-0.3,0,-0.5,-0.1,-0.7,-0.2c-0.3,-0.3,-0.4,-0.7,-0.2,-1.2l0.4,-1.2l-0.2,-0.2L104,44.7l-0.8,-0.8l3.2,-3.3l1.1,1.1c0.4,0.4,0.6,0.8,0.7,1.2c0,0.4,-0.1,0.8,-0.4,1c-0.2,0.2,-0.4,0.4,-0.7,0.4m3.1,1.8l-0.3,-0.4l-2,1.6l0.3,0.4c0.2,0.3,0.5,0.4,0.9,0.4c0.3,0,0.6,-0.2,0.8,-0.4c0.3,-0.2,0.5,-0.4,0.5,-0.7c0.1,-0.3,0.1,-0.6,-0.2,-0.9m0.4,2.5c-0.4,0.4,-1,0.6,-1.5,0.6c-0.7,0,-1.2,-0.3,-1.6,-0.8l-1,-1.3L110,44.2l1.1,1.3c0.4,0.6,0.5,1.1,0.4,1.7c-0.1,0.6,-0.4,1,-0.9,1.4m2.8,1.6c0,-0.1,-0.1,-0.2,-0.3,-0.2c-0.1,0,-0.2,0,-0.4,0.1c-0.1,0.1,-0.2,0.3,-0.2,0.5c0,0.1,0,0.2,0,0.2c0.1,0.1,0.2,0.2,0.4,0.2c0.1,0.1,0.2,0,0.4,0c0.1,-0.1,0.2,-0.2,0.2,-0.3c0,-0.2,0,-0.3,-0.1,-0.5m0.4,1.1c-0.2,0.1,-0.4,0.1,-0.6,0.1c-0.3,0,-0.5,-0.1,-0.7,-0.3c0.2,0.8,0,1.4,-0.6,1.7c-0.3,0.2,-0.7,0.2,-1,0.1c-0.4,-0.1,-0.7,-0.4,-0.9,-0.7c-0.2,-0.3,-0.3,-0.7,-0.2,-1.1c0,-0.4,0.2,-0.7,0.6,-1l0.2,0.1c-0.2,0.2,-0.3,0.4,-0.4,0.6c0,0.2,0.1,0.4,0.2,0.6c0.1,0.2,0.2,0.3,0.4,0.3c0.1,0.1,0.3,0.1,0.4,0c0.2,-0.1,0.3,-0.2,0.3,-0.4c0.1,-0.1,0.1,-0.3,0.1,-0.6c-0.1,-0.3,0,-0.6,0,-0.7c0.1,-0.4,0.3,-0.7,0.6,-0.9c0.4,-0.2,0.7,-0.2,1.1,-0.1c0.3,0.1,0.6,0.3,0.8,0.6c0.2,0.3,0.2,0.6,0.2,1c-0.1,0.3,-0.2,0.5,-0.5,0.7m3.2,16l0,-4.1c0,-1.8,-1.2,-3.7,-3.2,-3.7l-4.6,0l0,11.4l4.4,0c2.1,0,3.4,-1.8,3.4,-3.6m-0.9,11.6l0,-3.4c0,-2,-1.8,-3.5,-3.7,-3.5l-3.2,0l0,11.8l3,0l0,1l-10.5,0l0,-1l2.9,0l0,-24.3l-2.9,0l0,-1.1l12.7,0c4.2,0,7.1,3,7.1,6.7c0,2.8,-1.8,5.6,-4.7,6.4c2.6,0.9,3.9,3,3.9,6.3l0,3.6c0,1.5,1.2,2.6,2.9,2.6l0.5,0l0,0.8c0,0,-0.8,0.2,-1.4,0.2c-3.2,0,-6.6,-2.7,-6.6,-6.1Z" class="g1_1" />

</svg>
