<?xml version="1.0" encoding="UTF-8" standalone="no"?>
<!DOCTYPE svg PUBLIC "-//W3C//DTD SVG 1.1//EN"
"http://www.w3.org/Graphics/SVG/1.1/DTD/svg11.dtd">


<!-- Page 1 -->
<svg x="0" y="0" width="169" height="152" viewBox="0 0 169 152" version="1.1" xmlns="http://www.w3.org/2000/svg" xmlns:xlink="http://www.w3.org/1999/xlink"
style="display: block;margin-left: auto;margin-right: auto;">
<defs>

<style type="text/css"><![CDATA[

.g1_1{
fill: #231F20;
}


]]></style>

</defs>
<path d="M0,0
L0,152
L169,152
L169,0 Z " 
fill="#FFFFFF" stroke="none" />
<path fill-rule="evenodd" d="M49,87.5L49,75.4l4.8,0c2,0,3.6,1.6,3.6,3.5l0,5.1c0,1.9,-1.6,3.5,-3.6,3.5ZM49,63.2l4.8,0c1.9,0,3.2,1.8,3.2,3.7l0,3.9c0,1.9,-1.3,3.5,-3.3,3.5l-4.7,0ZM62,81.5c0,-3.1,-1.9,-5.7,-4.6,-6.6c2.4,-1,3.6,-3.2,3.6,-6.1c0,-3.7,-2.9,-6.6,-6.6,-6.6l-13,0l0,1l2.9,0l0,24.3l-2.9,0l0,1l13.7,0c3.9,0,6.9,-3.2,6.9,-7m45.6,21.8l-0.4,0.4l-0.9,-1l0.4,-0.4c0.2,-0.1,0.3,-0.1,0.5,-0.1c0.2,0,0.3,0.1,0.4,0.2c0.1,0.1,0.2,0.3,0.2,0.4c0,0.2,0,0.4,-0.2,0.5m2.3,-0.3c0.1,0.1,0.1,0.2,0.1,0.2c0.1,0.1,0,0.2,0,0.2c-0.1,0.1,-0.2,0.1,-0.4,0L108.5,103c0.1,-0.3,0.1,-0.5,0.1,-0.8c-0.1,-0.3,-0.2,-0.5,-0.4,-0.7c-0.2,-0.3,-0.5,-0.4,-0.9,-0.4c-0.5,0,-0.9,0.2,-1.3,0.5l-1.1,1.2l3.1,3.3l0.8,-0.8l-1.2,-1.2l0.2,-0.2l1.2,0.4c0.5,0.2,0.9,0.2,1.2,-0.1c0.1,-0.2,0.2,-0.4,0.2,-0.7c0,-0.2,-0.1,-0.5,-0.3,-0.7Zm-5.3,4.6c-0.3,0.2,-0.6,0.2,-0.9,0.1c-0.3,-0.2,-0.5,-0.4,-0.8,-0.7c-0.2,-0.3,-0.3,-0.6,-0.3,-0.9c0,-0.3,0.1,-0.6,0.4,-0.7c0.2,-0.2,0.5,-0.3,0.8,-0.1c0.3,0.1,0.6,0.3,0.8,0.6c0.2,0.3,0.3,0.6,0.3,0.9c0,0.3,-0.1,0.6,-0.3,0.8m-0.5,-3.4c-0.6,-0.2,-1.2,-0.1,-1.7,0.3c-0.6,0.4,-0.9,0.9,-0.9,1.5c-0.1,0.6,0.1,1.2,0.5,1.7c0.4,0.5,0.9,0.9,1.4,1c0.7,0.2,1.2,0.1,1.8,-0.3c0.5,-0.4,0.8,-0.9,0.8,-1.5c0.1,-0.6,-0.1,-1.2,-0.5,-1.7c-0.4,-0.6,-0.8,-0.9,-1.4,-1m7.7,-3.6l-0.3,0.4l-2,-1.6L109.8,99c0.3,-0.3,0.5,-0.4,0.9,-0.4c0.2,0,0.5,0.1,0.8,0.3c0.3,0.3,0.4,0.5,0.5,0.8c0.1,0.4,0.1,0.7,-0.2,0.9M112.2,98c-0.5,-0.3,-1,-0.5,-1.5,-0.5c-0.6,0,-1.2,0.3,-1.6,0.8l-1,1.3l3.5,2.9l1.1,-1.3c0.4,-0.5,0.5,-1.1,0.4,-1.7C113,98.9,112.7,98.4,112.2,98M57.1,45.9l1.4,0.7l-0.8,0.7Zm1.4,3.3L57.9,47.8L59,46.9l1.2,0.7l0.9,-0.7L56.9,44.5l-0.7,0.7L58,49.6Zm-4.3,1.4l-1,-0.9l0.4,-0.4c0.1,-0.1,0.2,-0.2,0.4,-0.2c0.2,0,0.3,0.1,0.4,0.2c0.2,0.1,0.3,0.2,0.3,0.4c0,0.1,0,0.3,-0.1,0.4ZM55.9,52L54.6,50.9l0.2,-0.2L56,51c0.5,0.2,0.9,0.1,1.2,-0.2c0.1,-0.2,0.2,-0.4,0.1,-0.7c0,-0.3,-0.1,-0.5,-0.4,-0.7l-0.1,0.2c0.1,0.1,0.1,0.2,0.1,0.2C57,49.9,57,50,56.9,50c-0.1,0.1,-0.2,0.1,-0.4,0.1L55.4,49.8c0.1,-0.3,0.1,-0.6,0,-0.9C55.3,48.7,55.2,48.5,55,48.3C54.7,48,54.4,47.9,54,48c-0.5,0,-0.8,0.3,-1.2,0.7l-1,1.2l3.4,3Zm57.4,43.4c0,0.1,0,0.1,-0.1,0.2c-0.2,0.1,-0.4,0.1,-0.6,0c-0.1,-0.1,-0.2,-0.2,-0.2,-0.3c-0.1,-0.2,0,-0.3,0,-0.4c0.1,-0.2,0.2,-0.2,0.4,-0.3c0.1,0,0.2,0,0.3,0.1c0.2,0.1,0.3,0.2,0.3,0.3c0,0.1,0,0.3,-0.1,0.4m2.1,-0.3c-0.5,-0.4,-1.2,-0.3,-1.8,0.2c0.1,-0.2,0.1,-0.5,0,-0.7c-0.1,-0.2,-0.2,-0.4,-0.4,-0.5c-0.3,-0.2,-0.6,-0.2,-0.9,-0.1c-0.3,0.1,-0.5,0.3,-0.7,0.6c-0.2,0.3,-0.3,0.7,-0.2,1c0,0.4,0.3,0.7,0.6,0.9c0.3,0.2,0.7,0.2,1.1,0.1c0.1,0,0.3,-0.1,0.6,-0.2c0.2,-0.2,0.4,-0.3,0.5,-0.3c0.2,0,0.4,0,0.5,0.1c0.2,0.1,0.3,0.2,0.3,0.4c0,0.1,0,0.3,-0.1,0.5c-0.1,0.2,-0.3,0.3,-0.5,0.4c-0.2,0,-0.4,0,-0.7,0l0,0.2c0.4,0.1,0.8,0.2,1.2,0c0.4,-0.1,0.6,-0.3,0.8,-0.7c0.2,-0.3,0.3,-0.7,0.3,-1c-0.1,-0.4,-0.3,-0.7,-0.6,-0.9M51.8,54.4l0.3,-0.6c0.1,-0.1,0.2,-0.2,0.3,-0.2c0.2,0,0.3,0,0.4,0.1c0.1,0.1,0.2,0.2,0.3,0.3c0,0.1,0,0.3,-0.1,0.4l-0.4,0.5ZM51.6,53.7l-0.3,0.4L50.5,53.5l0.2,-0.3C50.8,53,50.9,53,51,52.9c0.2,0,0.3,0,0.4,0.1c0.1,0.1,0.2,0.2,0.2,0.3c0.1,0.2,0,0.3,0,0.4m2.3,1.1c0.2,-0.4,0.3,-0.7,0.2,-1.1c0,-0.3,-0.2,-0.6,-0.5,-0.8C53.4,52.8,53.2,52.7,53,52.8c-0.3,0,-0.5,0,-0.7,0.2c0,-0.4,-0.1,-0.8,-0.5,-1C51.5,51.8,51.2,51.8,50.9,51.8c-0.4,0.1,-0.7,0.4,-1,0.7L49,53.9l3.9,2.5ZM51.8,97.5c0,0.1,-0.1,0.2,-0.2,0.3c-0.1,0,-0.2,0.1,-0.4,0.1C51.1,97.8,51,97.7,50.9,97.6L50.5,97.1l0.9,-0.6L51.7,97c0.1,0.2,0.2,0.3,0.1,0.5m0.9,-1.8L52.9,96C53,96.2,53,96.3,53,96.4c0,0.2,-0.1,0.3,-0.2,0.3c-0.1,0.1,-0.3,0.1,-0.4,0.1c-0.1,0,-0.2,-0.1,-0.3,-0.2L51.8,96.2Zm-0.3,2.6c0.1,-0.2,0.1,-0.5,0,-0.7c0.4,0.2,0.8,0.2,1.2,-0.1c0.2,-0.2,0.4,-0.4,0.5,-0.8c0.1,-0.4,0,-0.7,-0.3,-1.1L52.9,94.2l-3.8,2.5l1,1.6c0.3,0.3,0.6,0.6,0.9,0.7c0.4,0,0.7,0,1,-0.2c0.1,-0.1,0.3,-0.3,0.4,-0.5m48.4,11.8c-0.4,0.2,-0.8,0.2,-1.1,0.1c-0.4,-0.1,-0.7,-0.4,-1,-0.9c-0.2,-0.3,-0.2,-0.7,-0.2,-1c0.1,-0.3,0.2,-0.5,0.5,-0.7c0.2,-0.1,0.4,-0.1,0.6,-0.1c0.3,0.1,0.4,0.2,0.6,0.4l0.2,-0.1c-0.2,-0.5,-0.6,-0.8,-1,-0.9C99,106.8,98.6,106.8,98.2,107c-0.4,0.3,-0.7,0.6,-0.9,1.1c-0.1,0.6,0,1.2,0.3,1.9c0.4,0.6,0.8,1,1.4,1.3c0.5,0.2,1.1,0.2,1.6,-0.1c0.6,-0.3,1,-1,1.1,-2l-0.3,0c0,0.4,-0.3,0.7,-0.6,0.9m-25.7,4.8l3.1,0.5l0.1,-1l-2,-0.3l0.2,-1l1.3,0.2l0.1,-0.5l-1.3,-0.2l0.1,-1l2,0.3l0.1,-1l-3,-0.5ZM63.2,110.5l2.7,1.4l0.5,-0.8l-1.8,-1l0.5,-0.9l1.2,0.6l0.2,-0.4l-1.2,-0.6l0.5,-0.9l1.8,0.9L68,107.9l-2.7,-1.4Zm20.3,3.7L82.6,111L82,111l-0.9,3.2l-0.9,-3.1l-0.6,0l1.3,4.5l0.9,0l0.8,-2.7l0.7,2.7l1,0L85.5,111l-1.1,0ZM72.8,112.8l-0.4,-3.3l-1,-0.3l-1.3,4.4l1,0.3l0.9,-3l0.4,3.4l1,0.3l1.3,-4.4l-1,-0.3Zm-9.1,-7.3l-2.9,2.1l0.9,-3.5l-0.5,-0.4l-1.3,4.7l0.8,0.5l3.9,-2.8ZM55.2,99.2l0.4,0.4c0.1,0.2,0.2,0.3,0.1,0.5c0,0.1,-0.1,0.3,-0.2,0.4c-0.1,0.1,-0.3,0.1,-0.4,0.2c-0.2,0,-0.4,-0.1,-0.5,-0.2L54.2,100Zm-0.6,3.6c-0.1,0.1,-0.2,0.1,-0.2,0c-0.1,-0.1,-0.1,-0.2,0,-0.4l0.4,-1.1c0.3,0.1,0.6,0.2,0.9,0.2c0.2,-0.1,0.5,-0.2,0.7,-0.3c0.3,-0.3,0.4,-0.6,0.4,-1c0,-0.4,-0.1,-0.8,-0.5,-1.2l-1,-1.3l-3.5,3l0.7,0.8l1.3,-1.1l0.2,0.2l-0.5,1.1c-0.2,0.5,-0.2,0.9,0.1,1.2c0.1,0.2,0.3,0.3,0.6,0.3c0.3,0,0.5,-0.1,0.7,-0.3l-0.1,-0.2c-0.1,0.1,-0.2,0.1,-0.2,0.1m40.6,9.6l-0.4,-1L96.1,111l-0.2,-0.5l-1.3,0.4L94.3,110l1.9,-0.7l-0.4,-0.9l-2.9,1l1.6,4.3l2.9,-1.1L97,111.7ZM58,104.4l-0.7,-0.6L58.6,103ZM59.2,102L55,104.3l0.5,0.4L56.8,104l1,0.9l-0.6,1.4l0.9,0.8L60,102.6ZM72.1,41.1l-0.8,-3l2.1,2.6l1,-0.3L73.1,36l-1,0.3l0.9,3L70.9,36.7L69.8,37l1.3,4.4Zm39.4,8.4l0.3,0.4c0.2,0.3,0.3,0.6,0.2,0.9c-0.1,0.2,-0.2,0.5,-0.5,0.7c-0.3,0.2,-0.6,0.4,-0.9,0.4c-0.3,0,-0.6,-0.1,-0.8,-0.4l-0.3,-0.4Zm-2.4,2.7c0.4,0.5,0.9,0.8,1.5,0.8c0.6,0,1.1,-0.2,1.6,-0.6C112.7,52,113,51.5,113.1,51c0.1,-0.6,-0.1,-1.1,-0.5,-1.7l-1,-1.3L108,50.9ZM63.3,45.3L62,40.7l-1,0.7l1,3.4L59.1,42.7l-0.5,0.4l3.9,2.8ZM95.9,41.1L94.1,40.5l0.3,-1l1.3,0.4l0.1,-0.5L94.6,39l0.3,-1l1.9,0.7l0.4,-0.9L94.3,36.7L92.7,41l2.9,1.1ZM108,45.9l0.4,0.4c0.2,0.1,0.2,0.2,0.2,0.4c0,0.2,-0.1,0.3,-0.2,0.4c-0.1,0.2,-0.2,0.2,-0.4,0.3c-0.2,0,-0.3,-0.1,-0.5,-0.2l-0.4,-0.4Zm-2.4,2.6l1.2,-1.3l0.2,0.2l-0.4,1.2c-0.2,0.5,-0.1,0.9,0.2,1.2c0.1,0.1,0.4,0.2,0.6,0.2c0.3,-0.1,0.5,-0.2,0.7,-0.4L108,49.5c-0.2,0,-0.2,0.1,-0.2,0.1c-0.1,0,-0.2,0,-0.3,0c0,-0.1,-0.1,-0.3,0,-0.5L107.9,48c0.2,0.1,0.5,0.2,0.8,0.1c0.3,-0.1,0.5,-0.2,0.7,-0.4c0.2,-0.3,0.3,-0.6,0.3,-1c0,-0.4,-0.2,-0.8,-0.6,-1.2l-1.2,-1.1l-3.1,3.3Zm9.6,26.2l-4.4,0l0,-11.4l4.6,0c1.9,0,3.2,1.9,3.2,3.7l0,4c0,1.9,-1.3,3.7,-3.4,3.7m7,10.4l0,-3.5c0,-3.3,-1.2,-5.4,-3.8,-6.3c2.9,-0.9,4.7,-3.6,4.7,-6.4c0,-3.7,-3,-6.7,-7.1,-6.7l-12.8,0l0,1.1l3,0l0,24.3l-3,0l0,0.9l10.5,0l0,-0.9l-2.9,0l0,-11.8l3.2,0c1.9,0,3.6,1.5,3.6,3.5l0,3.4c0,3.4,3.5,6.1,6.7,6.1c0.6,0,1.3,-0.2,1.3,-0.2l0,-0.8l-0.5,0c-1.7,0,-2.9,-1.1,-2.9,-2.7M102.8,43.4c0.2,-0.3,0.5,-0.5,0.8,-0.6c0.3,-0.2,0.6,-0.1,0.8,0c0.3,0.2,0.4,0.5,0.4,0.8c0,0.3,-0.1,0.6,-0.3,0.9c-0.3,0.3,-0.5,0.6,-0.8,0.7c-0.3,0.1,-0.6,0.1,-0.9,-0.1c-0.2,-0.2,-0.3,-0.5,-0.3,-0.8c0,-0.3,0.1,-0.6,0.3,-0.9m-0.6,2.5c0.6,0.4,1.1,0.5,1.8,0.4c0.5,-0.2,1,-0.5,1.4,-1.1c0.4,-0.5,0.6,-1.1,0.5,-1.7c0,-0.6,-0.3,-1.1,-0.9,-1.5c-0.5,-0.4,-1.1,-0.5,-1.7,-0.3c-0.6,0.1,-1,0.5,-1.4,1c-0.4,0.5,-0.6,1.1,-0.5,1.7c0,0.6,0.3,1.1,0.8,1.5m-4,-2.5c0.6,0.4,1.4,0.3,2.2,-0.2l-0.1,-0.3c-0.4,0.2,-0.7,0.2,-1.1,0C98.8,42.7,98.6,42.5,98.5,42.1c-0.1,-0.4,-0.1,-0.8,0.1,-1.3c0.2,-0.4,0.5,-0.6,0.7,-0.8c0.3,-0.1,0.6,-0.1,0.9,0.1c0.2,0.1,0.4,0.2,0.4,0.4c0.1,0.2,0.1,0.5,0,0.7l0.3,0.1c0.2,-0.5,0.2,-0.9,0.1,-1.3c-0.1,-0.4,-0.4,-0.7,-0.8,-0.9C99.8,38.8,99.3,38.8,98.8,39c-0.5,0.2,-1,0.6,-1.3,1.3c-0.3,0.6,-0.4,1.2,-0.3,1.8c0.1,0.6,0.4,1.1,1,1.3M90.1,36.7l0.6,0.1c0.2,0.1,0.3,0.2,0.4,0.3c0.1,0.2,0.1,0.3,0,0.5c0,0.2,-0.1,0.3,-0.2,0.4c-0.2,0.1,-0.3,0.1,-0.5,0.1L89.9,38Zm-0.4,1.8l0.3,0l0.3,1.3c0.1,0.5,0.3,0.8,0.8,0.9c0.2,0,0.4,0,0.6,-0.2c0.2,-0.1,0.4,-0.3,0.4,-0.6L91.9,39.8c0,0.1,-0.1,0.2,-0.1,0.2c0,0.1,-0.1,0.1,-0.2,0.1c-0.1,0,-0.2,-0.1,-0.2,-0.3L91.1,38.6c0.3,0,0.6,-0.1,0.8,-0.3c0.1,-0.2,0.3,-0.4,0.3,-0.7c0.1,-0.4,0.1,-0.7,-0.2,-1C91.8,36.2,91.4,36,90.9,35.9L89.3,35.5l-1,4.4l1.1,0.3Zm42.8,42.7c0.3,7.2,0.6,14.7,-2.9,20.7c-2.6,4.6,-7.2,7.7,-11.4,10.1c-1.6,0.9,-3.4,1.9,-5.1,2.8c-1.7,0.9,-3.5,1.8,-5.2,2.8c-1.7,1,-3.4,2.1,-5.1,3.1c-1.6,1,-3.3,2.1,-4.9,3c-4.2,2.4,-9.1,4.9,-14.4,4.9c-7,0,-13.3,-4,-19.5,-7.9c-1.6,-1,-3.3,-2.1,-5,-3.1c-1.7,-0.9,-3.5,-1.9,-5.2,-2.8C47.5,111.5,40.9,108.1,37.3,101.9C33.7,95.7,34.1,88.3,34.4,81.1c0,-1.9,0.1,-3.9,0.1,-5.8c0,-2,0,-4,-0.1,-6C34.1,62.1,33.8,54.6,37.3,48.6C39.9,44,44.6,40.9,48.7,38.5c1.7,-0.9,3.4,-1.8,5.1,-2.8c1.7,-0.9,3.5,-1.8,5.2,-2.8c1.7,-1,3.4,-2,5.1,-3.1c1.6,-1,3.3,-2,4.9,-3C73.2,24.4,78.2,22,83.5,22c6.9,0,13.2,4,19.4,7.8c1.6,1,3.3,2.1,5,3.1c1.7,1,3.5,1.9,5.2,2.8c6.4,3.3,12.9,6.7,16.5,12.9c3.6,6.2,3.3,13.6,3,20.8c-0.1,1.9,-0.2,3.9,-0.2,5.9c0,1.9,0.1,3.9,0.1,5.9m1.1,-5.9c0,-1.9,0.1,-3.7,0.2,-5.7c0.3,-7.3,0.6,-14.9,-3.2,-21.5C126.8,41.4,120,37.9,113.5,34.5c-1.7,-0.9,-3.4,-1.7,-5,-2.7c-1.6,-0.9,-3.3,-1.9,-4.9,-2.9C97.4,24.9,90.9,20.8,83.5,20.8c-5.7,0,-10.9,2.6,-15.3,5.1c-1.6,0.9,-3.3,2,-4.9,3c-1.6,1,-3.3,2,-4.9,3c-1.6,0.9,-3.4,1.8,-5,2.7c-1.7,0.9,-3.4,1.8,-5.1,2.8c-3,1.7,-6.3,3.8,-8.9,6.6c-1.6,1.5,-3.1,3.2,-4.2,5.2C31.5,55.6,31.7,63.4,32,70.8c0.1,1.9,0.2,3.9,0.2,5.8c0,1.8,-0.1,3.7,-0.2,5.7c-0.3,7.4,-0.7,15,3.2,21.7c3.8,6.7,10.6,10.2,17.2,13.6c1.7,0.9,3.4,1.8,5,2.7c1.6,0.9,3.3,2,4.9,3c6.4,4,12.9,8.1,20.3,8.1c5.8,0,11,-2.6,15.4,-5.1c1.6,-0.9,3.3,-2,4.9,-3c1.7,-1,3.3,-2,5,-3c1.6,-1,3.4,-1.9,5.1,-2.8c1.6,-0.9,3.4,-1.8,5.1,-2.8c4.3,-2.5,9.1,-5.7,12,-10.7c1,-1.6,1.6,-3.4,2.1,-5.1C134.2,93.3,134,87,133.7,81c0,-1.9,-0.1,-3.9,-0.1,-5.7M91,112.1c0,0.2,-0.2,0.3,-0.4,0.3l-0.5,0.1l-0.3,-1.2l0.6,-0.2c0.1,0,0.3,0,0.4,0.1c0.2,0.1,0.2,0.3,0.3,0.4c0,0.2,0,0.3,-0.1,0.5m1.8,1.2c0,0.1,0,0.2,0,0.2c-0.1,0.1,-0.1,0.2,-0.2,0.2c-0.1,0,-0.2,0,-0.3,-0.2l-0.8,-0.9c0.3,-0.2,0.4,-0.4,0.5,-0.7c0.1,-0.2,0.1,-0.5,0.1,-0.7c-0.1,-0.4,-0.3,-0.7,-0.6,-0.9c-0.4,-0.2,-0.9,-0.2,-1.4,-0.1l-1.6,0.3l1.1,4.5l1,-0.3L90.2,113l0.3,0l0.8,1c0.3,0.4,0.7,0.5,1.1,0.5c0.2,-0.1,0.4,-0.2,0.5,-0.5c0.1,-0.2,0.2,-0.5,0.1,-0.8ZM68,42.6L67.5,41.8l-1.7,0.9L65.3,41.8l1.2,-0.6L66.2,40.7l-1.1,0.6L64.6,40.4l1.8,-0.9L65.9,38.6L63.2,40l2.1,4.1ZM65.1,57.2l4.4,0l0,37.1l-4.4,0l0,1.2l10.2,0l0,-1.2l-4.5,0l0,-35.1L95.6,96.1l0.2,0l0,-38.9l4.4,0l0,-1.2L89.9,56l0,1.2l4.5,0l0,26.9L75.5,56L65.1,56Zm49.2,-3.3c0.1,-0.1,0.3,-0.1,0.4,-0.1c0.1,0,0.2,0.1,0.3,0.2c0.1,0.2,0.1,0.3,0.1,0.5c-0.1,0.1,-0.1,0.2,-0.3,0.2c-0.1,0.1,-0.2,0.1,-0.3,0.1c-0.2,0,-0.3,-0.1,-0.4,-0.2c0,-0.1,0,-0.1,-0.1,-0.2c0,-0.2,0.1,-0.4,0.3,-0.5m-1.5,1.6c-0.1,0.1,-0.3,0.1,-0.5,0c-0.1,0,-0.3,-0.1,-0.4,-0.3c-0.1,-0.2,-0.1,-0.4,-0.1,-0.6c0,-0.2,0.1,-0.4,0.3,-0.6L112,53.9c-0.4,0.3,-0.6,0.6,-0.6,1c-0.1,0.4,0,0.7,0.2,1.1c0.2,0.3,0.5,0.6,0.8,0.7c0.4,0.1,0.7,0.1,1.1,-0.1c0.5,-0.4,0.7,-0.9,0.6,-1.8c0.2,0.3,0.4,0.4,0.6,0.4c0.3,0,0.5,0,0.7,-0.1c0.3,-0.2,0.4,-0.4,0.5,-0.8c0,-0.3,0,-0.6,-0.2,-0.9c-0.2,-0.3,-0.5,-0.5,-0.9,-0.6c-0.3,-0.1,-0.7,-0.1,-1,0.1c-0.3,0.2,-0.6,0.5,-0.6,0.9c-0.1,0.1,-0.1,0.4,-0.1,0.7c0,0.2,0,0.4,0,0.6c0,0.1,-0.1,0.3,-0.3,0.4M81.7,39.5l0.8,-2.7l0.7,2.7l0.9,0l1.4,-4.6l-1.1,0l-1,3.2L82.5,34.9l-0.6,0L81,38.1L80.1,34.9l-0.6,0l1.3,4.6Zm-3.1,0.2l-0.2,-1l-2,0.3L76.3,38l1.3,-0.2L77.5,37.3l-1.3,0.2L76,36.5l2,-0.4L77.9,35.2l-3.1,0.4l0.7,4.5Z" class="g1_1" />

</svg>
